<svg xmlns="http://www.w3.org/2000/svg" viewBox="0 0 240 200" fill="none">
  <path d="M22 166h42v-12h42v12h42v-12h70" stroke="#506856" stroke-width="1.75" stroke-linecap="round" stroke-linejoin="round"/>
  <path d="M76 77C61 62 45 59 27 67m137 10c15-15 31-18 49-10" stroke="#506856" stroke-width="1.75" stroke-linecap="round"/>
  <circle cx="24" cy="68" r="5" fill="#BCC9B9"/><circle cx="216" cy="68" r="5" fill="#E5C58E"/>
  <path d="M120 148v-47m0 19-23-19m23 7 24-20m-24 32 29 4" stroke="#506856" stroke-width="1.75" stroke-linecap="round" stroke-linejoin="round"/>
  <circle cx="97" cy="101" r="7" fill="#BCC9B9"/><circle cx="144" cy="88" r="8" fill="#E5C58E"/><circle cx="149" cy="124" r="5" fill="#BCC9B9"/>
  <path d="M164 141h37l-37-36v36Zm10-10v-10h10" fill="#E5C58E" fill-opacity=".72" stroke="#506856" stroke-width="1.75" stroke-linejoin="round"/>
</svg>
